<svg id="レイヤー_1" data-name="レイヤー 1" xmlns="http://www.w3.org/2000/svg" viewBox="0 0 97.47 25.06"><defs><style>.cls-1{fill:#505151;}</style></defs><title>font_mogami</title><path class="cls-1" d="M256.28,290.82a1.62,1.62,0,0,1-1-.3.83.83,0,0,1-.39-.65V278.94a.76.76,0,0,1,.39-.66,1.74,1.74,0,0,1,1-.26,1.48,1.48,0,0,1,.89.26.77.77,0,0,1,.38.66v1a4.75,4.75,0,0,1,1.35-1.42,3.8,3.8,0,0,1,2.24-.63,3.33,3.33,0,0,1,2.15.75,4.68,4.68,0,0,1,1.39,1.95,4.85,4.85,0,0,1,1.81-2,4.36,4.36,0,0,1,4.55,0,4.74,4.74,0,0,1,1.74,1.81,5.75,5.75,0,0,1,.67,2.89v6.69a.83.83,0,0,1-.41.65,1.71,1.71,0,0,1-1,.3,1.65,1.65,0,0,1-1-.3.82.82,0,0,1-.42-.65v-6.69a3,3,0,0,0-.37-1.56,2.39,2.39,0,0,0-.94-.95,2.41,2.41,0,0,0-1.2-.33,2.32,2.32,0,0,0-1.22.34,2.71,2.71,0,0,0-1.32,2.44v6.78a.73.73,0,0,1-.45.7,2.11,2.11,0,0,1-1,.22,2.13,2.13,0,0,1-.95-.22.73.73,0,0,1-.46-.7v-6.75a2.93,2.93,0,0,0-.35-1.49,2.52,2.52,0,0,0-.91-1,2.37,2.37,0,0,0-1.25-.34,2.46,2.46,0,0,0-2.14,1.27,2.9,2.9,0,0,0-.37,1.54v6.69a.82.82,0,0,1-.42.65A1.66,1.66,0,0,1,256.28,290.82Z" transform="translate(-254.88 -271.84)"/><path class="cls-1" d="M284.07,291a5.24,5.24,0,0,1-2.73-.75,6,6,0,0,1-2-2,4.88,4.88,0,0,1-.77-2.63v-2.48a5,5,0,0,1,.74-2.65,5.68,5.68,0,0,1,4.82-2.67,5.42,5.42,0,0,1,2.78.73,5.76,5.76,0,0,1,2,1.91,4.88,4.88,0,0,1,.77,2.68v2.48a4.93,4.93,0,0,1-.77,2.62,6,6,0,0,1-2.05,2A5.46,5.46,0,0,1,284.07,291Zm0-2.51a2.45,2.45,0,0,0,1.38-.4,3.11,3.11,0,0,0,1-1.07,2.77,2.77,0,0,0,.38-1.39v-2.48a2.67,2.67,0,0,0-.38-1.37,3.21,3.21,0,0,0-1-1,2.49,2.49,0,0,0-1.4-.4,2.42,2.42,0,0,0-1.37.4,3.12,3.12,0,0,0-1,1,2.75,2.75,0,0,0-.36,1.37v2.48a2.85,2.85,0,0,0,.36,1.39,2.91,2.91,0,0,0,1,1.07A2.44,2.44,0,0,0,284.09,288.52Z" transform="translate(-254.88 -271.84)"/><path class="cls-1" d="M299.67,296.89a9.22,9.22,0,0,1-2.89-.44,5,5,0,0,1-2.1-1.29,2.77,2.77,0,0,1-.79-2,2.68,2.68,0,0,1,.62-1.8,4.18,4.18,0,0,1,1.46-1.09,2.6,2.6,0,0,1-.89-.65,1.7,1.7,0,0,1-.35-1.13,1.87,1.87,0,0,1,.38-1.22,4.05,4.05,0,0,1,1-.84,3.92,3.92,0,0,1-1.17-1.47,4.4,4.4,0,0,1-.42-1.93v-.76a4.14,4.14,0,0,1,2.39-3.86,6.36,6.36,0,0,1,4.34-.32,5.17,5.17,0,0,1,1.42.67,4.17,4.17,0,0,1,.88-1.4,1.3,1.3,0,0,1,.85-.4,1.09,1.09,0,0,1,.86.32,1,1,0,0,1,.3.65.69.69,0,0,1-.12.39.86.86,0,0,1-.34.28,5.89,5.89,0,0,0-.63.37,2.53,2.53,0,0,0-.72.71,3.36,3.36,0,0,1,.68,1.19,4.7,4.7,0,0,1,.21,1.4V283a4.17,4.17,0,0,1-.65,2.3,4.34,4.34,0,0,1-1.81,1.6,5.76,5.76,0,0,1-2.64.58,4.9,4.9,0,0,1-1.86-.32,1.42,1.42,0,0,0-.37.31.68.68,0,0,0-.15.45c0,.32.2.55.6.7a6.89,6.89,0,0,0,1.52.32c.62.07,1.29.16,2,.27a9,9,0,0,1,2,.53,3.68,3.68,0,0,1,1.53,1.08,3,3,0,0,1,.59,1.95,3.4,3.4,0,0,1-.78,2.31,4.55,4.55,0,0,1-2.07,1.34A8.69,8.69,0,0,1,299.67,296.89Zm-.05-1.89a3.61,3.61,0,0,0,2.14-.58,1.78,1.78,0,0,0,.83-1.52,1.39,1.39,0,0,0-.41-1.06,2.51,2.51,0,0,0-1.05-.56,7.44,7.44,0,0,0-1.36-.27l-1.37-.17a3.65,3.65,0,0,0-1.28.77,1.68,1.68,0,0,0-.53,1.26,1.82,1.82,0,0,0,.85,1.57A3.92,3.92,0,0,0,299.62,295Zm-.06-9.29a2,2,0,0,0,1.69-.75,3,3,0,0,0,.61-1.92v-.76a2.87,2.87,0,0,0-.61-1.86,2.32,2.32,0,0,0-3.42,0,3,3,0,0,0-.59,1.86V283a3.11,3.11,0,0,0,.59,1.92A2.06,2.06,0,0,0,299.56,285.71Z" transform="translate(-254.88 -271.84)"/><path class="cls-1" d="M312.87,291a3.83,3.83,0,0,1-2.53-.87,3.92,3.92,0,0,1-.25-5.07,4.49,4.49,0,0,1,2.23-1.16,15.25,15.25,0,0,1,3.28-.32h1.19v-.49a3.73,3.73,0,0,0-.26-1.36,2.59,2.59,0,0,0-.83-1.11,2.53,2.53,0,0,0-1.58-.44,4.74,4.74,0,0,0-1.54.19,4,4,0,0,0-.87.4,1.11,1.11,0,0,1-.59.22.83.83,0,0,1-.76-.48,1.89,1.89,0,0,1-.27-1c0-.32.21-.61.64-.87a5.37,5.37,0,0,1,1.58-.62,7.52,7.52,0,0,1,1.86-.23,6,6,0,0,1,3.19.74,4.38,4.38,0,0,1,1.72,1.93,6.12,6.12,0,0,1,.54,2.56v6.78a.81.81,0,0,1-.39.66,1.63,1.63,0,0,1-1,.29,1.49,1.49,0,0,1-.92-.29.83.83,0,0,1-.38-.66v-.94a7.83,7.83,0,0,1-1.7,1.45A4.22,4.22,0,0,1,312.87,291Zm1-2.16a2.56,2.56,0,0,0,1.34-.4,3.61,3.61,0,0,0,1.1-1,2.14,2.14,0,0,0,.45-1.27v-1h-.68a13.35,13.35,0,0,0-1.94.13,3.06,3.06,0,0,0-1.47.54,1.48,1.48,0,0,0-.56,1.28,1.63,1.63,0,0,0,.5,1.33A1.92,1.92,0,0,0,313.9,288.87Z" transform="translate(-254.88 -271.84)"/><path class="cls-1" d="M326.59,290.82a1.6,1.6,0,0,1-1-.3.83.83,0,0,1-.39-.65V278.94a.76.76,0,0,1,.39-.66,1.72,1.72,0,0,1,1-.26,1.48,1.48,0,0,1,.89.26.77.77,0,0,1,.38.66v1a4.51,4.51,0,0,1,1.35-1.42,3.78,3.78,0,0,1,2.24-.63,3.35,3.35,0,0,1,2.15.75,4.68,4.68,0,0,1,1.39,1.95,4.83,4.83,0,0,1,1.8-2,4.36,4.36,0,0,1,4.55,0,4.69,4.69,0,0,1,1.75,1.81,5.75,5.75,0,0,1,.67,2.89v6.69a.82.82,0,0,1-.42.65,1.68,1.68,0,0,1-1,.3,1.66,1.66,0,0,1-1-.3.83.83,0,0,1-.41-.65v-6.69a3.13,3.13,0,0,0-.37-1.56,2.45,2.45,0,0,0-.94-.95,2.41,2.41,0,0,0-1.2-.33,2.29,2.29,0,0,0-1.22.34,2.66,2.66,0,0,0-1.32,2.44v6.78a.73.73,0,0,1-.45.7,2.23,2.23,0,0,1-1.93,0,.73.73,0,0,1-.46-.7v-6.75a3,3,0,0,0-.35-1.49,2.47,2.47,0,0,0-.92-1,2.31,2.31,0,0,0-1.24-.34,2.51,2.51,0,0,0-1.2.32,2.55,2.55,0,0,0-.95.95,3,3,0,0,0-.36,1.54v6.69a.82.82,0,0,1-.42.65A1.68,1.68,0,0,1,326.59,290.82Z" transform="translate(-254.88 -271.84)"/><path class="cls-1" d="M350.73,274.81a1.69,1.69,0,0,1-1.19-.46,1.38,1.38,0,0,1-.49-1,1.34,1.34,0,0,1,.49-1.05,1.71,1.71,0,0,1,1.19-.43,1.6,1.6,0,0,1,1.14.43,1.37,1.37,0,0,1,.48,1.05,1.4,1.4,0,0,1-.48,1A1.59,1.59,0,0,1,350.73,274.81Zm0,16a1.65,1.65,0,0,1-1-.3.83.83,0,0,1-.39-.65V278.94a.76.76,0,0,1,.39-.66,1.78,1.78,0,0,1,1-.26,1.83,1.83,0,0,1,1,.26.76.76,0,0,1,.42.66v10.93a.82.82,0,0,1-.42.65A1.7,1.7,0,0,1,350.73,290.82Z" transform="translate(-254.88 -271.84)"/></svg>