<svg id="レイヤー_3" data-name="レイヤー 3" xmlns="http://www.w3.org/2000/svg" viewBox="0 0 72.6 19.62"><defs><style>.cls-1{fill:#505151;}</style></defs><title>font-english</title><path class="cls-1" d="M261.8,291a5.57,5.57,0,0,1-2.4-.5,4.21,4.21,0,0,1-1.64-1.39,3.66,3.66,0,0,1-.59-2.09v-1.9a3.46,3.46,0,0,1,.56-1.94,4.26,4.26,0,0,1,1.51-1.41,4.38,4.38,0,0,1,4.06-.06,3.74,3.74,0,0,1,1.45,1.31,3.4,3.4,0,0,1,.55,1.92,2.05,2.05,0,0,1-.26,1.2,1.05,1.05,0,0,1-.68.44,5,5,0,0,1-.88.08h-4.22v.46a2,2,0,0,0,.73,1.59,2.91,2.91,0,0,0,1.87.59,2.81,2.81,0,0,0,1.14-.2,8.21,8.21,0,0,0,.74-.38,1.11,1.11,0,0,1,.56-.18.6.6,0,0,1,.44.16,1,1,0,0,1,.28.38.93.93,0,0,1,.11.4,1,1,0,0,1-.42.66,3.33,3.33,0,0,1-1.15.61A5.7,5.7,0,0,1,261.8,291Zm-2.54-5.64h3.32a1,1,0,0,0,.59-.12.6.6,0,0,0,.15-.48,1.83,1.83,0,0,0-.26-1,1.74,1.74,0,0,0-.72-.7,2.08,2.08,0,0,0-1-.25,2.19,2.19,0,0,0-1,.24,2,2,0,0,0-.74.66,1.76,1.76,0,0,0-.28,1Z" transform="translate(-257.17 -275.7)"/><path class="cls-1" d="M271.06,290.82a1.28,1.28,0,0,1-.75-.22.63.63,0,0,1-.29-.48V282a.57.57,0,0,1,.29-.49,1.35,1.35,0,0,1,.75-.19,1.09,1.09,0,0,1,.66.19.56.56,0,0,1,.28.49v.72a3,3,0,0,1,2.68-1.52,3,3,0,0,1,1.74.53,3.86,3.86,0,0,1,1.26,1.42,4.1,4.1,0,0,1,.49,2v5a.58.58,0,0,1-.34.52,1.51,1.51,0,0,1-1.43,0,.58.58,0,0,1-.34-.52v-5a2,2,0,0,0-.27-1,2.18,2.18,0,0,0-.73-.78,1.8,1.8,0,0,0-1-.3,1.76,1.76,0,0,0-.91.25,1.91,1.91,0,0,0-.73.71,2.16,2.16,0,0,0-.27,1.12v5a.62.62,0,0,1-.32.48A1.28,1.28,0,0,1,271.06,290.82Z" transform="translate(-257.17 -275.7)"/><path class="cls-1" d="M286.84,295.32a6.71,6.71,0,0,1-2.14-.33,3.78,3.78,0,0,1-1.56-.95,2.14,2.14,0,0,1-.58-1.48,2,2,0,0,1,.46-1.33,3,3,0,0,1,1.08-.81,2,2,0,0,1-.66-.48,1.26,1.26,0,0,1-.26-.84,1.38,1.38,0,0,1,.28-.9,2.93,2.93,0,0,1,.72-.62,3.18,3.18,0,0,1-.87-1.09,3.4,3.4,0,0,1-.31-1.43v-.56a3.2,3.2,0,0,1,.46-1.7,3.15,3.15,0,0,1,1.31-1.16,4.37,4.37,0,0,1,2-.42,4.28,4.28,0,0,1,1.27.18,3.4,3.4,0,0,1,1.05.5,3.11,3.11,0,0,1,.65-1,1,1,0,0,1,.63-.3.82.82,0,0,1,.64.24.7.7,0,0,1,.22.48.52.52,0,0,1-.09.29.75.75,0,0,1-.25.21,3.58,3.58,0,0,0-.47.27,2,2,0,0,0-.53.53,2.2,2.2,0,0,1,.5.88,3.28,3.28,0,0,1,.16,1v.56a3.14,3.14,0,0,1-.48,1.7,3.31,3.31,0,0,1-1.34,1.19,4.38,4.38,0,0,1-2,.43,3.7,3.7,0,0,1-1.38-.24,1.18,1.18,0,0,0-.27.23.49.49,0,0,0-.11.33c0,.24.15.41.44.52a6.1,6.1,0,0,0,1.13.24c.46.05,1,.12,1.47.2a6.9,6.9,0,0,1,1.47.39,2.65,2.65,0,0,1,1.13.8,2.15,2.15,0,0,1,.44,1.45,2.51,2.51,0,0,1-.58,1.71,3.45,3.45,0,0,1-1.53,1A6.59,6.59,0,0,1,286.84,295.32Zm0-1.4a2.72,2.72,0,0,0,1.59-.43,1.33,1.33,0,0,0,.61-1.13,1,1,0,0,0-.3-.78,1.83,1.83,0,0,0-.78-.42,5.31,5.31,0,0,0-1-.2l-1-.12a2.59,2.59,0,0,0-.95.57,1.21,1.21,0,0,0-.39.93,1.33,1.33,0,0,0,.63,1.16A2.85,2.85,0,0,0,286.8,293.92Zm0-6.88a1.51,1.51,0,0,0,1.25-.56,2.21,2.21,0,0,0,.45-1.42v-.56a2.12,2.12,0,0,0-.45-1.38,1.71,1.71,0,0,0-2.53,0,2.17,2.17,0,0,0-.44,1.38V285a2.31,2.31,0,0,0,.44,1.42A1.53,1.53,0,0,0,286.76,287Z" transform="translate(-257.17 -275.7)"/><path class="cls-1" d="M296.78,290.82a1.28,1.28,0,0,1-.75-.22.63.63,0,0,1-.29-.48V276.38a.57.57,0,0,1,.29-.49,1.58,1.58,0,0,1,1.5,0,.55.55,0,0,1,.31.49v13.74a.61.61,0,0,1-.31.48A1.28,1.28,0,0,1,296.78,290.82Z" transform="translate(-257.17 -275.7)"/><path class="cls-1" d="M304.24,279a1.27,1.27,0,0,1-.88-.34,1,1,0,0,1-.36-.76,1,1,0,0,1,.36-.78,1.26,1.26,0,0,1,.88-.32,1.17,1.17,0,0,1,.85.32,1,1,0,0,1,.35.78,1,1,0,0,1-.35.76A1.19,1.19,0,0,1,304.24,279Zm0,11.86a1.28,1.28,0,0,1-.75-.22.63.63,0,0,1-.29-.48V282a.57.57,0,0,1,.29-.49,1.58,1.58,0,0,1,1.5,0,.55.55,0,0,1,.31.49v8.1a.61.61,0,0,1-.31.48A1.28,1.28,0,0,1,304.24,290.82Z" transform="translate(-257.17 -275.7)"/><path class="cls-1" d="M313.38,291a6,6,0,0,1-1.76-.24,3.71,3.71,0,0,1-1.23-.61,1,1,0,0,1-.45-.75,1,1,0,0,1,.09-.4,1,1,0,0,1,.26-.38.53.53,0,0,1,.37-.16.84.84,0,0,1,.55.23,5,5,0,0,0,.77.46,3.23,3.23,0,0,0,1.34.23,2,2,0,0,0,1.35-.34,1,1,0,0,0,.35-.74,1,1,0,0,0-.35-.81,2.55,2.55,0,0,0-.9-.47c-.36-.12-.75-.24-1.17-.35a7.46,7.46,0,0,1-1.17-.45,2.6,2.6,0,0,1-.9-.78,2.31,2.31,0,0,1-.35-1.32,3,3,0,0,1,.34-1.35,2.62,2.62,0,0,1,1.09-1.1,4,4,0,0,1,2-.43,6.05,6.05,0,0,1,1.44.16,3.54,3.54,0,0,1,1.12.43c.3.18.44.37.44.59a1.1,1.1,0,0,1-.1.39,1.34,1.34,0,0,1-.27.44.56.56,0,0,1-.43.19,1.19,1.19,0,0,1-.5-.15,5.3,5.3,0,0,0-.7-.29,2.78,2.78,0,0,0-1-.14,2,2,0,0,0-.93.19,1.26,1.26,0,0,0-.51.45,1,1,0,0,0-.16.52.8.8,0,0,0,.34.68,3.15,3.15,0,0,0,.9.4l1.18.33a4.33,4.33,0,0,1,1.17.49,2.43,2.43,0,0,1,1.25,2.3,2.49,2.49,0,0,1-.91,2A4,4,0,0,1,313.38,291Z" transform="translate(-257.17 -275.7)"/><path class="cls-1" d="M322.66,290.82a1.28,1.28,0,0,1-.75-.22.63.63,0,0,1-.29-.48V276.38a.57.57,0,0,1,.29-.49,1.58,1.58,0,0,1,1.5,0,.55.55,0,0,1,.31.49v6.36a3,3,0,0,1,.95-1.05,2.64,2.64,0,0,1,1.61-.47,3,3,0,0,1,1.73.53,3.8,3.8,0,0,1,1.27,1.42,4.1,4.1,0,0,1,.48,2v5a.57.57,0,0,1-.33.52,1.51,1.51,0,0,1-1.43,0,.58.58,0,0,1-.34-.52v-5a1.92,1.92,0,0,0-.28-1,2.27,2.27,0,0,0-.73-.78,1.76,1.76,0,0,0-1-.3,1.82,1.82,0,0,0-.92.25,2,2,0,0,0-.72.71,2.16,2.16,0,0,0-.28,1.12v5a.61.61,0,0,1-.31.48A1.28,1.28,0,0,1,322.66,290.82Z" transform="translate(-257.17 -275.7)"/></svg>