<svg id="レイヤー_2" data-name="レイヤー 2" xmlns="http://www.w3.org/2000/svg" viewBox="0 0 91.28 18.56"><defs><style>.cls-1{fill:#505151;}</style></defs><title>font-japanese</title><path class="cls-1" d="M246.89,295.32A1.1,1.1,0,0,1,246,295a1,1,0,0,1-.23-.6.92.92,0,0,1,.24-.67.77.77,0,0,1,.58-.25.91.91,0,0,0,.69-.25,1.22,1.22,0,0,0,.29-.7,7.94,7.94,0,0,0,.06-1V282a.57.57,0,0,1,.29-.49,1.3,1.3,0,0,1,.73-.19,1.4,1.4,0,0,1,.77.19.55.55,0,0,1,.31.49v9.52a5.72,5.72,0,0,1-.31,2,2.77,2.77,0,0,1-1,1.34A2.6,2.6,0,0,1,246.89,295.32ZM248.71,279a1.24,1.24,0,0,1-.86-.34,1,1,0,0,1-.36-.76,1,1,0,0,1,.36-.78,1.23,1.23,0,0,1,.86-.32,1.17,1.17,0,0,1,.85.32,1,1,0,0,1,.35.78,1,1,0,0,1-.35.76A1.19,1.19,0,0,1,248.71,279Z" transform="translate(-245.81 -276.76)"/><path class="cls-1" d="M257,291a2.86,2.86,0,0,1-1.88-.65,2.46,2.46,0,0,1-.78-2,2.42,2.42,0,0,1,.6-1.76,3.18,3.18,0,0,1,1.65-.86,11,11,0,0,1,2.43-.24h.88v-.36a2.67,2.67,0,0,0-.19-1,1.78,1.78,0,0,0-.62-.82A1.87,1.87,0,0,0,258,283a3.45,3.45,0,0,0-1.14.14,2.74,2.74,0,0,0-.64.3.85.85,0,0,1-.44.16.63.63,0,0,1-.56-.35,1.47,1.47,0,0,1-.2-.71.81.81,0,0,1,.47-.65,3.92,3.92,0,0,1,1.17-.46,5.54,5.54,0,0,1,1.38-.17,4.36,4.36,0,0,1,2.36.55,3.15,3.15,0,0,1,1.28,1.43,4.46,4.46,0,0,1,.4,1.9v5a.59.59,0,0,1-.29.49,1.19,1.19,0,0,1-.73.21,1.12,1.12,0,0,1-.68-.21.63.63,0,0,1-.28-.49v-.7a5.59,5.59,0,0,1-1.26,1.08A3.15,3.15,0,0,1,257,291Zm.76-1.6a1.84,1.84,0,0,0,1-.3,2.84,2.84,0,0,0,.82-.76,1.6,1.6,0,0,0,.33-.94v-.74h-.5a11.13,11.13,0,0,0-1.44.09,2.28,2.28,0,0,0-1.09.4,1.11,1.11,0,0,0-.41.95,1.25,1.25,0,0,0,.37,1A1.45,1.45,0,0,0,257.79,289.38Z" transform="translate(-245.81 -276.76)"/><path class="cls-1" d="M268.19,295.32a1.24,1.24,0,0,1-.73-.22.63.63,0,0,1-.29-.48V282a.57.57,0,0,1,.29-.49,1.26,1.26,0,0,1,.71-.19,1.18,1.18,0,0,1,.7.19.56.56,0,0,1,.28.49v.72a3.31,3.31,0,0,1,1-1.05,2.81,2.81,0,0,1,1.65-.47,3.21,3.21,0,0,1,1.82.53,3.71,3.71,0,0,1,1.3,1.42,4.1,4.1,0,0,1,.48,2V287a4,4,0,0,1-.49,1.95,4.16,4.16,0,0,1-1.29,1.47,3,3,0,0,1-1.74.56,2.93,2.93,0,0,1-1.62-.47,2.83,2.83,0,0,1-1-1.09v5.2a.61.61,0,0,1-.31.48A1.32,1.32,0,0,1,268.19,295.32Zm3.1-6.2a1.78,1.78,0,0,0,1-.3,2.3,2.3,0,0,0,.75-.8,2,2,0,0,0,.29-1v-1.84a1.92,1.92,0,0,0-.28-1,2.15,2.15,0,0,0-.75-.78,1.89,1.89,0,0,0-1.05-.3,1.92,1.92,0,0,0-.94.25,2,2,0,0,0-.75.71,2.07,2.07,0,0,0-.29,1.12v2.3a1.29,1.29,0,0,0,.26.63,3,3,0,0,0,.72.71A1.82,1.82,0,0,0,271.29,289.12Z" transform="translate(-245.81 -276.76)"/><path class="cls-1" d="M282.33,291a2.86,2.86,0,0,1-1.88-.65,2.46,2.46,0,0,1-.78-2,2.42,2.42,0,0,1,.6-1.76,3.18,3.18,0,0,1,1.65-.86,11,11,0,0,1,2.43-.24h.88v-.36a2.67,2.67,0,0,0-.19-1,1.78,1.78,0,0,0-.62-.82,1.85,1.85,0,0,0-1.17-.33,3.45,3.45,0,0,0-1.14.14,2.74,2.74,0,0,0-.64.3.85.85,0,0,1-.44.16.63.63,0,0,1-.56-.35,1.47,1.47,0,0,1-.2-.71.81.81,0,0,1,.47-.65,3.92,3.92,0,0,1,1.17-.46,5.54,5.54,0,0,1,1.38-.17,4.36,4.36,0,0,1,2.36.55,3.15,3.15,0,0,1,1.28,1.43,4.46,4.46,0,0,1,.4,1.9v5a.59.59,0,0,1-.29.49,1.19,1.19,0,0,1-.73.21,1.12,1.12,0,0,1-.68-.21.63.63,0,0,1-.28-.49v-.7a5.59,5.59,0,0,1-1.26,1.08A3.15,3.15,0,0,1,282.33,291Zm.76-1.6a1.84,1.84,0,0,0,1-.3,2.84,2.84,0,0,0,.82-.76,1.6,1.6,0,0,0,.33-.94v-.74h-.5a11.13,11.13,0,0,0-1.44.09,2.28,2.28,0,0,0-1.09.4,1.11,1.11,0,0,0-.41.95,1.25,1.25,0,0,0,.37,1A1.45,1.45,0,0,0,283.09,289.38Z" transform="translate(-245.81 -276.76)"/><path class="cls-1" d="M293.49,290.82a1.28,1.28,0,0,1-.75-.22.63.63,0,0,1-.29-.48V282a.57.57,0,0,1,.29-.49,1.35,1.35,0,0,1,.75-.19,1.09,1.09,0,0,1,.66.19.56.56,0,0,1,.28.49v.72a3,3,0,0,1,2.68-1.52,3,3,0,0,1,1.73.53,3.8,3.8,0,0,1,1.27,1.42,4.1,4.1,0,0,1,.48,2v5a.57.57,0,0,1-.33.52,1.51,1.51,0,0,1-1.43,0,.58.58,0,0,1-.34-.52v-5a2,2,0,0,0-.27-1,2.18,2.18,0,0,0-.73-.78,1.8,1.8,0,0,0-1-.3,1.82,1.82,0,0,0-.92.25,2,2,0,0,0-.72.71,2.16,2.16,0,0,0-.28,1.12v5a.61.61,0,0,1-.31.48A1.28,1.28,0,0,1,293.49,290.82Z" transform="translate(-245.81 -276.76)"/><path class="cls-1" d="M310,291a5.5,5.5,0,0,1-2.4-.5,4.14,4.14,0,0,1-1.64-1.39,3.66,3.66,0,0,1-.6-2.09v-1.9a3.47,3.47,0,0,1,.57-1.94,4.26,4.26,0,0,1,1.51-1.41,4.38,4.38,0,0,1,4.06-.06,3.81,3.81,0,0,1,1.45,1.31,3.4,3.4,0,0,1,.55,1.92,2.13,2.13,0,0,1-.26,1.2,1.08,1.08,0,0,1-.68.44,5,5,0,0,1-.88.08h-4.22v.46a2,2,0,0,0,.73,1.59,2.91,2.91,0,0,0,1.87.59,2.81,2.81,0,0,0,1.14-.2c.29-.14.54-.26.74-.38a1.11,1.11,0,0,1,.56-.18.63.63,0,0,1,.44.16,1,1,0,0,1,.28.38.91.91,0,0,1,.1.4.94.94,0,0,1-.41.66,3.43,3.43,0,0,1-1.15.61A5.7,5.7,0,0,1,310,291Zm-2.54-5.64h3.32a1,1,0,0,0,.59-.12.6.6,0,0,0,.15-.48,1.83,1.83,0,0,0-.26-1,1.74,1.74,0,0,0-.72-.7,2.08,2.08,0,0,0-1-.25,2.19,2.19,0,0,0-1,.24,2,2,0,0,0-.74.66,1.76,1.76,0,0,0-.28,1Z" transform="translate(-245.81 -276.76)"/><path class="cls-1" d="M321.09,291a6,6,0,0,1-1.76-.24,3.71,3.71,0,0,1-1.23-.61,1,1,0,0,1-.45-.75,1,1,0,0,1,.09-.4,1,1,0,0,1,.26-.38.53.53,0,0,1,.37-.16.86.86,0,0,1,.55.23,5,5,0,0,0,.77.46,3.23,3.23,0,0,0,1.34.23,2,2,0,0,0,1.35-.34,1,1,0,0,0,.35-.74,1,1,0,0,0-.35-.81,2.55,2.55,0,0,0-.9-.47c-.36-.12-.76-.24-1.17-.35a7.46,7.46,0,0,1-1.17-.45,2.51,2.51,0,0,1-.9-.78,2.31,2.31,0,0,1-.35-1.32,2.88,2.88,0,0,1,.34-1.35,2.62,2.62,0,0,1,1.09-1.1,4,4,0,0,1,2-.43,6.05,6.05,0,0,1,1.44.16,3.64,3.64,0,0,1,1.12.43c.29.18.44.37.44.59a1.1,1.1,0,0,1-.1.39,1.34,1.34,0,0,1-.27.44.56.56,0,0,1-.43.19,1.19,1.19,0,0,1-.5-.15,5.3,5.3,0,0,0-.7-.29,2.82,2.82,0,0,0-1-.14,1.92,1.92,0,0,0-.93.19,1.26,1.26,0,0,0-.51.45.93.93,0,0,0-.16.52.8.8,0,0,0,.34.68,3.15,3.15,0,0,0,.9.4l1.18.33a4.61,4.61,0,0,1,1.17.49,2.56,2.56,0,0,1,.9.86,2.64,2.64,0,0,1,.35,1.44,2.49,2.49,0,0,1-.91,2A4,4,0,0,1,321.09,291Z" transform="translate(-245.81 -276.76)"/><path class="cls-1" d="M333.59,291a5.5,5.5,0,0,1-2.4-.5,4.14,4.14,0,0,1-1.64-1.39A3.66,3.66,0,0,1,329,287v-1.9a3.47,3.47,0,0,1,.57-1.94,4.26,4.26,0,0,1,1.51-1.41,4.38,4.38,0,0,1,4.06-.06,3.81,3.81,0,0,1,1.45,1.31,3.4,3.4,0,0,1,.55,1.92,2.13,2.13,0,0,1-.26,1.2,1.08,1.08,0,0,1-.68.44,5,5,0,0,1-.88.08h-4.22v.46a2,2,0,0,0,.73,1.59,2.91,2.91,0,0,0,1.87.59,2.81,2.81,0,0,0,1.14-.2c.29-.14.54-.26.74-.38a1.11,1.11,0,0,1,.56-.18.63.63,0,0,1,.44.16,1,1,0,0,1,.28.38.91.91,0,0,1,.1.4.94.94,0,0,1-.41.66,3.43,3.43,0,0,1-1.15.61A5.7,5.7,0,0,1,333.59,291Zm-2.54-5.64h3.32a1,1,0,0,0,.59-.12.6.6,0,0,0,.15-.48,1.83,1.83,0,0,0-.26-1,1.74,1.74,0,0,0-.72-.7,2.08,2.08,0,0,0-1-.25,2.19,2.19,0,0,0-1,.24,2,2,0,0,0-.74.66,1.76,1.76,0,0,0-.28,1Z" transform="translate(-245.81 -276.76)"/></svg>